<svg height="512" viewBox="0 0 128 128" width="512" xmlns="http://www.w3.org/2000/svg"><g><path d="m76.047 41.905c6.494-16.638 16.9-20.692 27.761-17.278-.964 19.33-20.808 19.993-27.761 17.278z" fill="#bae543"/><path d="m64.7 54.19a1.75 1.75 0 0 1 -1.324-2.89 77.033 77.033 0 0 1 11.624-10.792 71.308 71.308 0 0 1 16.053-9.462 1.75 1.75 0 1 1 1.254 3.268 67.757 67.757 0 0 0 -15.187 8.979 73.645 73.645 0 0 0 -11.1 10.291 1.748 1.748 0 0 1 -1.32.606z" fill="#a5cc2a"/><path d="m53.638 58.325c-6.425-16.462-16.719-20.475-27.469-17.1.954 19.131 20.592 19.787 27.469 17.1z" fill="#bae543"/><path d="m67.523 73.5a1.744 1.744 0 0 1 -1.385-.679c-8.276-10.693-21.955-19.447-28.6-21.995a1.75 1.75 0 0 1 1.262-3.265c7.216 2.77 21.328 11.775 30.108 23.121a1.75 1.75 0 0 1 -1.385 2.818z" fill="#a5cc2a"/><path d="m33.371 6.535c-4.051 19.551 15.593 25.365 23.237 24.451-2.169-18.296-11.508-25.042-23.237-24.451z" fill="#bae543"/><path d="m67.114 104.083c-.051 0-.1 0-.152-.006a1.75 1.75 0 0 1 -1.594-1.893c4.263-49.655-8.785-72.684-20.481-83.266a1.75 1.75 0 0 1 2.348-2.6c12.284 11.11 26.006 35.076 21.62 86.161a1.749 1.749 0 0 1 -1.741 1.604z" fill="#a5cc2a"/><path d="m97.928 121.5h-67.728a11.037 11.037 0 0 1 -.125-1.65 10.781 10.781 0 0 1 6.185-9.75 9.218 9.218 0 0 1 12.74-5.747 10.762 10.762 0 0 1 9.684-6.072 10.408 10.408 0 0 1 1.765.16 12.32 12.32 0 0 1 20.705 4.441 14.015 14.015 0 0 1 9.924 8.578 10.8 10.8 0 0 1 6.85 10.04z" fill="#663325"/><g fill="#4f2217"><path d="m103.808 123.25h-79.616a1.75 1.75 0 0 1 0-3.5h79.616a1.75 1.75 0 0 1 0 3.5z"/><path d="m72.885 109.585a1.75 1.75 0 0 1 -1.656-1.186 2.326 2.326 0 0 0 -3.914-.838 1.75 1.75 0 0 1 -2.558-2.389 5.826 5.826 0 0 1 9.785 2.1 1.751 1.751 0 0 1 -1.657 2.314z"/><path d="m48.522 115.845a1.754 1.754 0 0 1 -1.679-2.247 5.8 5.8 0 0 1 5.532-4.133 5.719 5.719 0 0 1 2.43.54 1.75 1.75 0 0 1 -1.477 3.173 2.245 2.245 0 0 0 -.953-.213 2.282 2.282 0 0 0 -2.175 1.626 1.753 1.753 0 0 1 -1.678 1.254z"/></g></g></svg>