<svg id="Capa_1" enable-background="new 0 0 512 512" height="512" viewBox="0 0 512 512" width="512" fill="#74b814" xmlns="http://www.w3.org/2000/svg"><g><path d="m497 271h-166.963c0-.14-.031-107.675-.037-126h40c41.355 0 75-33.645 75-75v-55c0-8.284-6.716-15-15-15h-55c-40.302 0-73.267 31.957-74.92 71.86-17.015-16.024-39.919-25.86-65.08-25.86h-55c-8.284 0-15 6.716-15 15v55c0 52.383 42.617 95 95 95h40.037v60h-33.758c-22.596-61.484-110.175-62.711-153.581 0h-97.698c-8.284 0-15 6.716-15 15s6.716 15 15 15h82.529c-27.097 77.771 20.437 167.882 101.399 167.882 55.979-.083 90.22-59.636 61.252-106.882h4.857c19.299 0 35 15.701 35 35v35.172l-41.925 54.724c-7.613 9.937-.366 24.124 11.896 24.124 4.507 0 8.965-2.024 11.918-5.878l18.111-23.64v15.498c0 8.284 6.716 15 15 15s15-6.716 15-15v-16.601l18.38 24.988c2.94 3.997 7.487 6.113 12.096 6.113 12.128 0 19.408-13.915 12.071-23.889l-42.547-57.845v-32.766c0-20.37-9.426-38.573-24.137-50.5 13.495-10.941 22.523-27.167 23.926-45.5h167.174c8.284 0 15-6.716 15-15s-6.716-15-15-15zm-167-196c0-24.813 20.187-45 45-45h40v40c0 24.813-20.187 45-45 45h-40zm-30 106h-40c-35.841 0-65-29.159-65-65v-40h40c35.841 0 65 29.159 65 65zm-101.116 257.882c-1.467-.332-31.279 1.85-55.564-26.136-48.272-55.628-17.999-158.304 55.362-158.304 38.439 0 62.826 49.784 16.979 79.609-9.101 5.92-9.081 19.278.037 25.172 45.187 29.204 22.472 79.601-16.814 79.659zm66.153-107.882h-4.814c5.994-9.89 9.074-20.162 9.987-30h29.464c-2.435 16.938-17.036 30-34.637 30z"/><path d="m61 376c0-8.284-6.716-15-15-15h-30c-8.284 0-15 6.716-15 15s6.716 15 15 15h30c8.284 0 15-6.716 15-15z"/><path d="m75 451h-30c-8.284 0-15 6.716-15 15s6.716 15 15 15h30c8.284 0 15-6.716 15-15s-6.716-15-15-15z"/><path d="m481 451h-30c-8.284 0-15 6.716-15 15s6.716 15 15 15h30c8.284 0 15-6.716 15-15s-6.716-15-15-15z"/><path d="m406 361h-30c-8.284 0-15 6.716-15 15s6.716 15 15 15h30c8.284 0 15-6.716 15-15s-6.716-15-15-15z"/></g></svg>